<svg width="280" height="153" viewBox="0 0 280 153" fill="none" xmlns="http://www.w3.org/2000/svg">
<path fill-rule="evenodd" clip-rule="evenodd" d="M69.9997 54.1875C69.9997 45.3855 83.058 38.25 99.1663 38.25C115.275 38.25 128.333 45.3855 128.333 54.1875C128.333 62.9895 115.275 70.125 99.1663 70.125C83.058 70.125 69.9997 62.9895 69.9997 54.1875ZM99.1663 51C95.9447 51 93.333 52.4271 93.333 54.1875C93.333 55.9479 95.9447 57.375 99.1663 57.375C102.388 57.375 105 55.9479 105 54.1875C105 52.4271 102.388 51 99.1663 51Z" fill="#2D3648"/>
<path fill-rule="evenodd" clip-rule="evenodd" d="M23.333 31.875C23.333 21.3126 39.003 12.75 58.333 12.75H221.666C240.996 12.75 256.666 21.3126 256.666 31.875V121.125C256.666 131.687 240.996 140.25 221.666 140.25H58.333C39.003 140.25 23.333 131.687 23.333 121.125V31.875ZM58.333 25.5C51.8897 25.5 46.6663 28.3542 46.6663 31.875V121.125C46.6663 123.859 49.8155 126.191 54.2397 127.097L178.418 59.2422C182.974 56.7526 190.361 56.7526 194.917 59.2422L233.333 80.2339V31.875C233.333 28.3542 228.11 25.5 221.666 25.5H58.333ZM233.333 98.2651L186.667 72.7656L86.4997 127.5H221.666C228.11 127.5 233.333 124.646 233.333 121.125V98.2651Z" fill="#2D3648"/>
</svg>
